<svg xmlns="http://www.w3.org/2000/svg" width="1024" height="1024" viewBox="0 0 1024 1024">
<g>
<path d="M 0.00 0.00 L 1024.00 0.00 L 1024.00 1024.00 L 0.00 1024.00 ZM 360.00 230.00 L 360.00 684.04 L 382.75 683.77 L 405.50 683.50 L 405.50 517.35 C405.50,426.12 405.84,351.65 406.25,351.65 L 406.25 351.65 C406.66,351.91 407.00,353.02 407.00,354.13 C407.00,356.47 416.65,400.60 427.97,450.00 C432.32,468.98 437.93,493.50 440.44,504.50 C442.95,515.50 448.34,538.90 452.43,556.50 C456.52,574.10 463.46,604.03 467.85,623.00 C472.25,641.97 477.27,663.47 479.01,670.77 L 482.17 684.03 L 507.34 683.77 L 532.50 683.50 L 532.50 230.50 L 487.50 230.50 L 487.21 334.00 C487.05,390.92 487.38,458.61 487.93,484.41 C488.54,513.44 488.57,531.92 487.99,532.91 C487.48,533.78 487.05,534.19 487.03,533.82 C486.94,531.88 478.58,492.93 474.51,475.50 C471.94,464.50 468.57,449.65 467.03,442.50 C465.49,435.35 462.42,421.85 460.21,412.50 C453.84,385.53 433.94,297.87 424.92,257.00 C422.19,244.62 419.52,233.49 419.00,232.25 L 418.04 230.00 ZM 743.46 682.75 C743.82,683.70 749.56,684.00 767.47,684.00 L 791.00 684.00 L 791.00 485.00 L 803.25 484.98 C850.05,484.92 871.90,475.92 883.87,451.75 C886.67,446.10 888.80,439.87 890.11,433.47 C891.99,424.25 892.07,420.34 891.77,355.13 L 891.45 286.50 L 888.78 276.73 C885.28,263.93 881.95,257.90 874.02,250.00 C865.72,241.72 856.47,236.83 842.37,233.28 L 831.50 230.53 L 743.50 230.50 L 743.24 456.00 C743.10,580.03 743.20,682.06 743.46,682.75 ZM 625.58 687.96 C628.84,688.47 636.90,688.71 643.50,688.50 C677.34,687.39 698.82,673.73 709.23,646.69 C713.47,635.70 713.99,626.85 713.99,565.39 L 714.00 507.27 L 690.75 506.77 C677.96,506.49 667.09,506.50 666.59,506.79 C666.06,507.10 665.90,531.07 666.21,565.41 C666.74,624.71 666.35,632.96 663.04,632.21 C662.25,632.03 661.98,632.51 662.34,633.45 C662.66,634.29 662.53,634.87 662.05,634.74 C661.56,634.61 658.91,636.61 656.16,639.19 C646.43,648.31 638.24,650.21 628.50,645.62 C619.24,641.25 615.08,633.87 614.10,620.02 C613.77,615.34 613.72,538.38 614.00,449.00 C614.48,292.18 614.57,286.34 616.40,282.00 C620.63,271.99 626.25,267.58 636.26,266.40 C642.86,265.62 651.39,267.32 655.70,270.28 C657.45,271.48 659.87,274.20 661.06,276.32 C666.17,285.41 666.25,286.40 666.63,349.50 C666.83,381.95 667.19,409.32 667.42,410.32 C667.82,412.01 669.11,412.12 685.17,411.86 C694.70,411.70 705.09,411.40 708.25,411.19 L 714.00 410.81 L 714.00 354.13 C714.00,321.52 713.57,293.99 712.98,289.30 C710.37,268.49 705.20,256.22 694.50,245.46 C680.49,231.37 660.06,224.85 634.50,226.29 C620.81,227.07 612.54,229.17 601.00,234.79 C578.87,245.58 568.47,263.88 565.92,296.50 C565.26,304.86 565.02,366.29 565.25,468.50 C565.58,615.13 565.74,628.06 567.34,634.73 C575.12,667.17 592.10,682.69 625.58,687.96 ZM 224.04 681.07 C225.32,683.46 230.51,683.71 231.39,681.42 C231.73,680.55 232.00,660.52 232.00,636.92 C232.00,613.31 232.37,594.00 232.82,594.00 C234.34,594.00 250.91,611.64 252.15,614.58 C252.87,616.28 253.62,624.58 253.94,634.50 L 254.50 651.50 L 258.22 651.81 C261.50,652.08 262.01,651.81 262.59,649.51 C262.95,648.08 263.05,640.06 262.82,631.70 C262.27,611.73 261.10,609.00 247.05,594.95 C241.81,589.72 238.45,586.88 236.29,583.32 C232.42,576.94 232.38,568.23 232.27,539.19 C232.26,535.42 232.24,531.30 232.21,526.81 C232.21,525.33 232.20,523.88 232.19,522.46 C231.95,482.45 231.87,468.76 237.69,458.36 C240.92,452.58 245.97,447.82 253.84,440.13 C273.18,421.20 311.17,385.84 311.65,386.32 C313.07,387.74 313.94,405.34 313.02,414.23 C311.09,433.06 306.60,444.85 296.03,458.83 C288.54,468.73 281.40,474.68 268.80,481.50 L 259.50 486.54 L 259.20 491.21 L 258.89 495.89 L 261.70 495.09 C263.24,494.64 267.80,492.62 271.84,490.58 C295.01,478.91 311.62,458.71 319.62,432.44 C322.11,424.30 322.36,422.02 322.41,407.00 C322.46,392.20 322.18,389.38 319.72,379.61 C318.21,373.63 316.08,366.71 314.99,364.24 L 313.00 359.74 L 309.75 362.27 C306.34,364.92 306.12,366.05 307.55,373.40 C308.13,376.40 307.95,377.56 306.78,378.42 C305.93,379.04 301.08,383.36 295.98,388.02 C290.89,392.68 285.77,397.32 284.61,398.33 C283.45,399.33 277.77,404.73 272.00,410.33 C254.64,427.14 233.91,446.48 232.83,446.87 C232.14,447.11 231.94,438.39 232.21,420.37 C232.59,395.42 232.78,393.16 234.80,388.70 C238.21,381.18 240.67,378.49 267.12,353.43 L 292.00 329.85 L 292.00 300.46 C292.00,271.84 292.05,271.04 294.05,269.97 C299.31,267.16 301.58,257.95 298.48,251.97 C295.47,246.14 286.48,244.19 280.23,248.00 C276.37,250.35 275.00,253.43 275.00,259.72 C275.00,263.77 275.47,264.75 279.00,268.11 L 283.00 271.92 L 283.00 325.74 L 274.75 333.69 C259.57,348.31 233.18,373.00 232.72,373.00 C232.48,373.00 232.38,366.36 232.52,358.25 C232.88,335.87 232.93,335.77 251.50,317.25 C259.91,308.86 267.25,302.00 267.82,302.00 C268.39,302.00 270.01,303.46 271.42,305.25 L 273.98 308.50 L 273.99 301.18 C273.99,297.16 273.59,293.09 273.08,292.15 C272.57,291.20 265.24,281.19 256.80,269.91 C248.35,258.63 238.35,244.83 234.57,239.25 C230.94,233.88 229.43,230.83 227.75,230.74 C226.13,230.65 224.36,233.30 220.37,239.26 C219.43,240.66 218.38,242.23 217.18,244.00 C213.24,249.77 207.07,258.55 203.45,263.50 C199.84,268.45 194.75,275.42 192.13,279.00 C170.51,308.62 158.02,327.90 149.67,344.56 C136.28,371.27 132.56,384.61 132.65,405.50 C132.74,424.97 136.27,437.95 146.19,455.31 C152.28,465.97 159.83,474.37 170.43,482.24 C178.03,487.89 192.32,495.42 200.25,497.96 L 204.00 499.16 L 204.00 514.67 C204.00,532.11 203.33,534.37 197.00,538.32 C193.60,540.44 192.38,540.51 155.00,541.00 L 116.50 541.50 L 116.50 549.50 L 138.25 549.77 C150.21,549.92 160.00,550.26 160.00,550.53 C160.00,550.80 158.68,552.85 157.06,555.08 C155.44,557.31 152.68,563.17 150.92,568.08 C147.24,578.35 143.00,583.12 135.81,585.03 C129.27,586.78 128.53,587.40 128.19,591.35 C127.89,594.90 127.97,595.00 131.31,595.00 C138.94,595.00 148.89,589.65 153.41,583.12 C154.83,581.08 157.62,575.24 159.60,570.15 C163.29,560.70 167.31,555.45 173.21,552.40 C174.69,551.63 180.32,550.62 185.71,550.16 C192.39,549.59 196.81,548.65 199.63,547.20 C204.68,544.61 211.26,537.33 212.62,532.83 C213.26,530.71 213.39,519.70 212.97,502.50 C212.37,477.93 212.12,474.99 210.10,469.79 C207.17,462.23 199.09,453.67 174.23,431.82 C163.40,422.30 151.66,411.80 148.16,408.50 L 141.78 402.50 L 142.43 395.50 C143.05,388.88 147.17,371.50 148.43,370.24 C148.51,370.16 148.57,370.08 148.65,370.03 C149.19,369.72 150.69,371.08 166.67,385.58 C167.37,386.22 168.10,386.88 168.86,387.57 C177.31,395.23 190.32,406.97 197.78,413.66 C212.86,427.17 217.98,433.84 221.05,443.94 C223.00,450.37 223.08,452.73 222.80,497.64 L 222.50 544.61 L 219.16 551.18 C214.71,559.94 208.52,565.98 202.84,567.07 C200.45,567.54 193.24,567.93 186.82,567.96 C176.03,568.00 175.09,568.15 174.50,570.00 C174.15,571.10 174.15,572.90 174.50,574.00 C175.08,575.82 176.01,576.00 185.07,576.00 C190.53,576.00 195.00,576.39 195.00,576.86 C195.00,577.89 179.14,593.14 175.23,595.88 C173.73,596.93 169.59,598.33 166.03,598.99 C156.45,600.76 144.48,607.36 141.82,612.34 C140.93,614.00 141.13,614.69 142.98,616.18 C146.06,618.68 148.23,618.46 151.08,615.37 C153.92,612.28 162.47,608.02 165.86,608.01 C167.74,608.00 168.05,608.35 167.41,609.75 C166.96,610.71 166.43,617.01 166.22,623.75 L 165.84 636.00 L 173.70 636.00 L 174.27 625.15 C174.59,619.19 175.50,612.74 176.30,610.82 C177.76,607.33 189.47,594.00 191.08,594.00 C191.55,594.00 192.06,598.84 192.22,604.75 L 192.50 615.50 L 196.25 615.81 C199.30,616.06 200.01,615.78 200.06,614.31 C200.09,613.31 200.06,607.48 200.01,601.34 C199.93,593.21 200.33,589.14 201.49,586.34 C202.95,582.82 220.42,564.00 222.23,564.00 C222.65,564.00 223.00,573.69 223.00,585.54 C223.00,610.43 222.80,611.19 213.87,619.54 C197.30,635.04 194.90,639.15 194.21,653.31 L 193.73 663.13 L 198.11 662.81 L 202.50 662.50 L 203.04 653.50 C203.38,647.94 204.23,643.30 205.26,641.36 C206.91,638.28 220.66,625.00 222.21,625.00 C222.64,625.00 223.00,637.18 223.00,652.07 C223.00,668.81 223.39,679.87 224.04,681.07 ZM 816.21 444.44 C809.34,445.44 795.31,445.66 792.99,444.80 C791.02,444.07 791.00,443.06 791.00,356.92 L 791.00 269.77 L 807.75 270.24 C826.09,270.76 831.21,271.93 836.33,276.79 C839.75,280.04 841.79,283.79 843.82,290.50 C845.07,294.63 845.40,305.34 845.74,351.77 C846.15,408.60 845.56,422.97 842.63,427.44 C841.86,428.62 838.17,431.14 834.43,433.04 C830.69,434.93 826.12,438.12 824.27,440.12 C821.67,442.93 819.85,443.90 816.21,444.44 ZM 282.28 634.80 C282.86,635.52 284.72,635.97 286.41,635.80 L 289.50 635.50 L 289.50 621.75 C289.50,610.47 289.76,608.00 290.93,608.00 C293.40,608.00 300.47,611.86 304.82,615.58 L 308.99 619.15 L 311.99 617.00 C313.65,615.83 315.00,614.51 315.00,614.07 C315.00,612.62 305.35,604.22 301.34,602.17 C299.17,601.07 294.59,599.58 291.17,598.87 C285.14,597.63 284.65,597.28 275.22,587.54 L 265.50 577.50 L 280.00 576.91 L 280.00 568.00 L 269.08 568.00 C263.08,568.00 257.44,567.72 256.54,567.38 C253.45,566.19 252.00,561.45 252.00,552.54 L 252.00 543.97 L 256.19 546.62 C259.57,548.75 262.11,549.39 269.44,549.95 C284.99,551.15 290.23,555.34 296.46,571.55 C299.56,579.63 301.15,582.33 304.89,585.89 C310.61,591.34 318.16,594.98 323.75,594.99 L 328.00 595.00 L 328.00 587.10 L 321.97 585.41 C312.85,582.85 308.82,578.63 304.49,567.12 C302.56,561.97 299.59,556.01 297.90,553.88 L 294.83 550.00 L 340.00 550.00 L 340.00 541.07 L 301.07 540.78 C263.36,540.51 262.06,540.43 259.32,538.41 C257.77,537.25 255.49,534.55 254.27,532.41 C252.13,528.67 252.03,527.49 252.02,504.57 C252.02,503.91 252.02,503.27 252.01,502.64 C252.00,487.32 251.99,480.95 254.50,475.81 C256.39,471.94 259.70,468.77 265.49,463.00 L 275.04 453.50 L 280.95 453.50 C288.13,453.50 291.85,451.17 293.90,445.36 C295.85,439.85 294.67,434.50 290.71,430.88 C288.13,428.53 286.66,428.00 282.66,428.00 C278.31,428.00 277.33,428.43 273.88,431.88 C270.32,435.44 270.00,436.22 270.00,441.21 L 270.00 446.65 L 259.63 456.58 C253.93,462.03 248.36,468.30 247.25,470.50 C243.44,478.09 243.00,483.69 243.02,523.80 C243.04,560.54 243.15,562.73 245.08,566.98 C246.41,569.93 252.03,576.42 261.50,585.98 C279.21,603.83 280.17,605.63 280.79,622.00 C281.04,628.33 281.70,634.09 282.28,634.80 ZM 222.84 405.50 C223.02,412.65 223.02,419.95 222.84,421.72 L 222.50 424.94 L 214.00 416.72 C209.32,412.20 203.47,406.69 201.00,404.47 C198.52,402.26 186.68,391.50 174.68,380.56 C154.79,362.44 152.92,360.45 153.49,358.09 C154.53,353.82 165.40,334.50 166.77,334.50 C167.91,334.50 193.04,357.36 208.53,372.50 C211.90,375.80 216.43,381.65 218.58,385.50 L 222.50 392.50 ZM 252.45 403.45 C258.36,406.37 265.98,404.72 269.44,399.78 C270.40,398.41 271.00,395.41 271.00,391.96 L 271.00 386.36 L 323.50 334.06 L 323.15 313.23 L 322.80 292.39 L 326.42 289.95 C331.07,286.79 332.49,282.14 330.70,275.95 C327.50,264.90 312.83,263.70 307.48,274.04 C304.54,279.73 306.77,288.20 311.95,290.97 C313.91,292.02 314.00,292.93 314.02,311.79 L 314.05 331.50 L 289.30 355.70 L 264.55 379.90 L 260.44 379.34 C246.75,377.46 240.14,397.38 252.45,403.45 ZM 795.00 716.00 L 795.00 788.00 L 804.75 788.00 C816.63,787.99 819.89,786.47 822.46,779.74 C823.93,775.90 824.11,771.88 823.83,749.90 C823.47,722.25 823.30,721.37 817.69,717.95 C815.11,716.38 812.64,716.01 804.75,716.00 ZM 431.54 788.32 C435.12,789.32 442.19,788.25 444.86,786.29 C450.61,782.08 451.00,779.90 450.98,752.00 C450.96,729.35 450.75,726.05 449.10,722.42 C446.63,716.99 441.64,714.53 434.72,715.35 C428.53,716.08 425.24,718.17 423.42,722.55 C421.41,727.35 421.36,776.54 423.36,781.33 C424.73,784.60 427.88,787.30 431.54,788.32 ZM 715.27 787.57 C719.50,789.48 727.37,788.85 730.82,786.32 C736.61,782.08 737.00,779.93 737.00,752.00 C737.00,723.95 736.63,721.93 730.67,717.57 C726.97,714.86 717.57,714.74 713.57,717.36 C708.43,720.73 708.00,723.48 708.00,752.72 C708.01,777.81 708.13,779.71 710.02,782.81 C711.13,784.63 713.49,786.77 715.27,787.57 ZM 860.71 787.38 C861.10,787.77 863.47,787.96 865.96,787.80 L 870.50 787.50 L 870.13 775.42 C869.71,761.45 870.38,757.00 872.89,757.00 C874.30,757.00 875.04,759.16 876.92,768.75 C879.72,782.99 880.26,786.75 882.20,787.71 C882.89,788.05 883.76,788.03 884.98,788.01 C885.31,788.01 885.66,788.00 886.04,788.00 C888.77,788.00 890.98,787.66 890.96,787.25 C890.94,786.84 889.81,781.55 888.45,775.50 C888.09,773.92 887.76,772.45 887.45,771.10 C884.45,757.83 883.83,755.12 884.75,753.09 C885.08,752.37 885.60,751.73 886.28,750.73 C891.95,742.37 890.58,724.19 883.86,718.53 C881.06,716.18 880.12,716.00 870.42,716.00 L 860.00 716.00 L 860.00 751.33 C860.00,770.77 860.32,786.99 860.71,787.38 ZM 457.00 716.00 L 457.00 788.00 L 467.30 788.00 L 466.81 764.75 C466.39,745.10 466.51,742.20 467.55,746.00 C468.24,748.47 470.22,755.90 471.97,762.50 C473.71,769.10 476.03,777.54 477.11,781.25 L 479.08 788.00 L 488.00 788.00 L 488.00 715.89 L 479.50 716.50 L 479.18 736.50 L 478.86 756.50 L 473.64 738.00 C470.78,727.83 468.12,718.71 467.75,717.75 C467.22,716.41 465.90,716.00 462.03,716.00 ZM 673.00 716.00 L 673.00 788.00 L 683.00 788.00 L 683.00 772.43 C683.00,756.92 683.01,756.86 685.22,757.18 C687.24,757.47 687.65,758.67 689.77,770.50 C691.05,777.65 692.31,784.51 692.57,785.75 C692.98,787.72 693.66,788.00 698.02,788.00 C700.76,788.00 703.01,787.66 703.02,787.25 C703.03,786.84 701.41,779.49 699.43,770.92 L 695.83 755.34 L 698.36 751.61 C701.38,747.16 702.43,741.21 701.78,732.15 C700.84,719.00 697.26,716.00 682.55,716.00 ZM 273.84 787.30 C274.03,787.74 276.28,787.97 278.84,787.80 L 283.50 787.50 L 283.50 772.25 C283.50,757.47 283.56,757.00 285.58,757.00 L 285.68 757.00 C286.03,757.00 286.33,757.00 286.60,757.09 C287.95,757.55 288.51,760.34 292.02,777.25 L 294.26 788.00 L 299.13 788.00 C301.81,788.00 304.00,787.57 304.00,787.04 C304.00,786.52 302.42,779.56 300.50,771.57 C298.58,763.58 297.00,756.58 297.00,756.00 C297.00,755.43 298.20,753.14 299.67,750.92 C301.82,747.67 302.42,745.40 302.78,739.20 C303.31,729.91 301.87,724.01 298.03,719.71 C295.20,716.53 295.06,716.50 284.61,716.16 L 274.05 715.82 L 273.78 751.16 C273.62,770.60 273.65,786.86 273.84,787.30 ZM 137.00 715.90 L 137.00 788.00 L 146.00 788.00 L 146.09 775.75 C146.14,769.01 146.16,758.78 146.15,753.00 C146.15,752.53 146.15,752.07 146.14,751.64 C146.13,747.48 146.12,744.98 146.50,744.92 C147.07,744.83 148.54,750.40 152.24,764.46 C152.49,765.43 152.76,766.45 153.04,767.50 C157.14,783.08 157.96,786.87 160.03,787.76 C160.69,788.04 161.49,788.03 162.56,788.01 C162.84,788.01 163.15,788.00 163.48,788.00 L 168.00 788.00 L 168.00 716.00 L 159.00 716.00 L 158.93 736.75 C158.89,748.75 158.51,756.66 158.04,755.50 C157.27,753.67 153.84,741.07 149.30,723.50 L 147.49 716.50 L 142.24 716.20 ZM 222.82 357.72 C223.00,366.12 222.77,372.99 222.32,372.99 C221.87,372.98 215.87,367.46 209.00,360.74 C202.12,354.01 191.10,343.57 184.50,337.55 C177.90,331.53 172.37,326.08 172.21,325.46 C171.99,324.60 182.35,308.06 187.06,301.74 C187.37,301.33 194.03,307.40 201.85,315.24 C213.01,326.42 216.77,330.90 219.29,335.97 C222.42,342.28 222.51,342.83 222.82,357.72 ZM 306.92 787.59 C307.20,787.86 309.47,787.96 311.96,787.80 L 316.50 787.50 L 317.37 779.75 L 318.24 772.00 L 323.01 772.00 C328.50,772.00 328.52,772.04 329.52,781.33 L 330.23 788.00 L 335.12 788.00 C339.78,788.00 340.00,787.88 340.00,785.25 C339.99,783.74 338.47,773.28 336.61,762.00 C334.75,750.72 332.44,735.76 331.46,728.75 L 329.69 716.00 L 323.37 716.00 C317.61,716.00 317.00,716.20 316.57,718.25 C315.12,725.14 306.49,787.16 306.92,787.59 ZM 173.00 784.75 C173.00,787.93 173.10,788.00 177.45,788.00 C177.75,788.00 178.03,788.00 178.29,788.01 C179.62,788.02 180.48,788.03 181.10,787.64 C182.36,786.84 182.55,784.35 183.52,776.75 L 184.12 772.00 L 189.06 772.00 C191.78,772.00 194.03,772.11 194.06,772.25 C194.10,772.39 194.66,775.88 195.31,780.00 L 196.50 787.50 L 201.88 787.81 C206.21,788.05 207.15,787.84 206.71,786.68 C206.13,785.17 200.17,748.76 197.18,728.50 L 195.41 716.50 L 189.33 716.21 C188.74,716.18 188.21,716.14 187.73,716.10 C186.13,715.99 185.04,715.91 184.24,716.35 C182.27,717.41 181.96,721.51 179.97,735.50 C178.80,743.75 176.75,757.47 175.42,766.00 C174.09,774.53 173.00,782.96 173.00,784.75 ZM 204.00 486.14 C204.00,486.27 204.00,486.39 204.00,486.51 C204.01,487.52 204.01,488.18 203.68,488.48 C203.07,489.04 201.30,488.34 196.21,486.32 C195.88,486.19 195.54,486.06 195.19,485.92 C168.04,475.16 148.06,450.12 143.47,421.12 C142.81,416.91 142.86,416.79 144.73,418.12 C151.90,423.19 196.08,463.75 198.73,467.69 C201.83,472.30 204.00,479.90 204.00,486.14 ZM 638.00 716.00 L 638.00 788.00 L 648.00 788.00 L 648.00 773.61 L 648.00 772.52 C648.00,763.36 648.00,759.98 649.63,758.73 C650.59,757.99 652.11,758.00 654.52,758.00 C654.68,758.00 654.84,758.00 655.01,758.00 C659.89,758.00 664.56,754.25 665.97,749.19 C667.73,742.82 667.22,728.07 665.06,723.32 C662.34,717.34 659.13,716.00 647.55,716.00 ZM 246.50 787.59 C253.81,790.84 261.73,788.26 264.96,781.59 C266.88,777.62 267.00,775.55 267.00,746.68 L 267.00 716.00 L 257.45 716.00 L 257.43 746.02 C257.41,775.09 257.35,776.10 255.33,778.12 C253.59,779.86 252.89,780.01 251.07,779.04 C249.88,778.40 248.48,776.75 247.95,775.37 C247.43,774.00 247.00,760.07 247.00,744.43 L 247.00 716.00 L 237.00 716.00 L 237.00 743.36 C237.00,758.41 237.46,773.13 238.01,776.06 C239.11,781.86 241.78,785.49 246.50,787.59 ZM 555.00 786.64 C555.00,787.58 556.36,788.00 559.43,788.00 L 563.86 788.00 L 565.38 782.75 C566.22,779.86 567.69,774.24 568.65,770.25 C569.60,766.26 570.71,763.00 571.10,763.00 C571.50,763.00 573.15,768.51 574.78,775.25 L 577.73 787.50 L 582.87 787.80 C585.83,787.98 588.00,787.68 588.00,787.10 C588.00,786.55 586.92,782.59 585.59,778.30 C579.11,757.29 577.81,751.82 578.48,748.24 C579.10,744.94 585.97,721.86 587.58,717.66 C588.18,716.08 587.69,715.92 582.91,716.19 L 577.56 716.50 L 574.62 727.78 C573.00,733.99 571.34,738.72 570.95,738.28 C570.55,737.85 568.98,732.66 567.46,726.75 L 564.70 716.00 L 559.85 716.00 C556.96,716.00 555.00,716.45 555.00,717.11 C555.00,717.72 556.64,723.46 558.64,729.86 C563.95,746.84 565.00,751.88 563.84,754.92 C562.28,759.01 555.00,785.13 555.00,786.64 ZM 396.62 787.97 C401.03,789.29 403.59,789.15 408.10,787.34 C413.76,785.08 415.95,780.20 415.98,769.75 L 416.00 762.00 L 406.00 762.00 L 406.00 769.43 C406.00,774.85 405.58,777.28 404.43,778.43 C402.48,780.38 401.99,780.38 399.22,778.44 C397.03,776.91 397.00,776.58 397.00,752.01 C397.00,730.74 397.23,726.92 398.57,725.57 C400.44,723.70 403.14,723.54 404.80,725.20 C405.51,725.91 406.00,729.36 406.00,733.70 L 406.00 741.00 L 416.00 741.00 L 416.00 733.40 C416.00,720.65 411.92,715.50 401.82,715.50 C395.23,715.50 391.52,717.65 388.75,723.07 C387.23,726.06 387.00,729.64 387.01,751.00 C387.01,764.47 387.46,777.11 388.00,779.07 C389.16,783.25 392.55,786.75 396.62,787.97 ZM 750.15 781.75 L 751.21 788.00 L 762.72 788.00 L 763.96 778.75 C764.64,773.66 766.69,760.50 768.51,749.50 C770.34,738.50 772.15,726.46 772.53,722.75 L 773.23 716.00 L 768.73 716.00 C768.38,716.00 768.06,715.99 767.75,715.99 C766.73,715.96 765.96,715.94 765.34,716.24 C763.27,717.24 762.90,721.78 760.44,741.50 L 760.27 742.89 C758.02,760.96 757.22,767.35 756.70,767.32 C756.39,767.31 756.18,765.21 755.83,762.00 C754.87,753.16 751.17,723.93 750.43,719.25 C749.92,716.09 749.77,716.00 744.95,716.00 C741.71,716.00 740.00,716.42 740.00,717.23 C740.00,717.90 741.32,726.57 742.92,736.48 C744.53,746.39 746.58,759.22 747.47,765.00 C748.36,770.78 749.57,778.31 750.15,781.75 ZM 247.43 308.69 C239.27,316.56 232.46,323.00 232.29,323.00 C232.13,323.00 232.00,307.25 232.00,288.00 C232.00,268.75 232.17,253.00 232.38,253.00 C232.60,253.00 235.82,257.16 239.54,262.25 C243.26,267.34 249.33,275.55 253.03,280.50 C254.01,281.81 254.91,282.98 255.72,284.03 C259.09,288.43 260.94,290.83 260.86,293.17 C260.75,296.54 256.66,299.78 247.43,308.69 ZM 527.00 716.00 L 527.00 788.06 L 539.25 787.78 L 551.50 787.50 L 551.57 783.50 L 551.64 779.50 L 544.57 779.00 L 537.50 778.50 L 536.94 755.00 L 549.00 755.00 L 549.00 746.00 L 537.00 746.00 L 537.00 725.00 L 551.00 725.00 L 551.00 716.00 ZM 830.87 785.75 C831.22,787.94 831.57,788.00 843.12,788.00 L 855.00 788.00 L 855.00 779.09 L 840.50 778.50 L 840.50 755.50 L 846.80 755.20 L 853.09 754.90 L 852.71 750.70 L 852.32 746.50 L 840.50 745.50 L 839.93 725.00 L 855.00 725.00 L 855.00 716.00 L 831.14 716.00 L 830.82 749.75 C830.64,768.31 830.66,784.51 830.87,785.75 ZM 222.77 271.32 C222.92,281.12 222.92,296.73 222.77,306.01 L 222.50 322.90 L 208.02 308.48 L 193.53 294.06 L 195.44 290.78 C197.33,287.53 200.77,282.74 215.07,263.51 L 222.50 253.52 ZM 502.44 785.80 C503.03,787.68 503.86,788.00 508.13,788.00 L 513.13 788.00 L 512.81 756.50 L 512.50 725.00 L 522.00 725.00 L 522.00 716.00 L 493.00 716.00 L 493.00 725.00 L 503.19 725.00 L 502.46 754.30 C502.06,770.41 502.05,784.58 502.44,785.80 ZM 214.00 725.00 L 214.00 788.00 L 224.00 788.00 L 224.00 725.00 L 233.00 725.00 L 233.00 716.00 L 204.00 716.00 L 204.00 725.00 ZM 599.86 787.25 C599.94,787.66 602.25,788.00 605.00,788.00 L 610.00 788.00 L 610.00 725.00 L 619.00 725.00 L 619.00 716.00 L 589.89 716.00 L 590.50 724.50 L 595.35 724.81 L 600.20 725.12 L 599.96 755.81 C599.83,772.69 599.79,786.84 599.86,787.25 ZM 344.35 780.35 L 343.71 788.00 L 369.00 788.00 L 369.00 779.09 L 362.25 778.80 L 355.50 778.50 L 354.97 716.00 L 345.00 716.00 L 345.00 744.35 C345.00,759.94 344.71,776.14 344.35,780.35 ZM 778.00 716.00 L 778.00 788.00 L 788.00 788.00 L 788.00 716.00 ZM 284.00 525.05 C304.85,525.96 313.92,526.02 327.27,525.34 C339.46,524.72 340.07,524.59 340.61,522.42 C340.92,521.17 340.88,519.21 340.52,518.06 C339.86,515.99 339.56,515.98 305.68,516.24 L 271.50 516.50 L 271.50 524.50 ZM 116.69 524.55 C118.07,525.93 119.51,526.13 124.34,525.62 C127.61,525.28 142.38,525.00 157.15,525.00 L 184.00 525.00 L 184.00 516.00 L 150.70 516.00 C126.13,516.00 117.09,516.31 116.20,517.20 C114.48,518.92 114.72,522.58 116.69,524.55 ZM 725.43 778.43 C723.19,780.67 721.44,780.38 719.07,777.37 C717.11,774.87 717.00,773.49 717.00,751.37 C717.00,729.33 717.11,727.89 719.00,726.00 C721.48,723.52 723.21,723.47 725.35,725.83 C726.79,727.43 727.00,730.77 727.00,752.26 C727.00,773.29 726.77,777.09 725.43,778.43 ZM 439.17 778.35 C438.17,779.26 437.15,779.95 436.92,779.88 C436.69,779.82 435.72,779.56 434.77,779.31 C431.57,778.48 430.85,772.43 431.18,749.17 C431.48,728.42 431.64,726.74 433.44,725.42 C435.99,723.56 436.62,723.62 439.00,726.00 C440.89,727.89 441.00,729.33 441.00,752.35 C441.00,774.66 440.85,776.83 439.17,778.35 ZM 811.78 777.44 C809.45,779.08 806.80,779.46 805.67,778.33 C805.30,777.97 805.00,765.82 805.00,751.33 L 805.00 725.00 L 807.85 725.00 C813.72,725.00 814.00,726.24 814.00,752.27 C814.00,775.54 813.97,775.91 811.78,777.44 ZM 291.43 746.43 C290.18,747.68 284.06,748.77 283.98,747.75 C283.97,747.61 283.72,742.44 283.41,736.25 L 282.87 725.00 L 286.89 725.00 C290.68,725.00 290.96,725.21 291.95,728.75 C293.57,734.61 293.28,744.58 291.43,746.43 ZM 655.43 747.43 C653.83,749.02 649.88,749.55 648.67,748.33 C648.30,747.97 648.00,742.57 648.00,736.33 L 648.00 725.00 L 651.30 725.00 C656.35,725.00 657.00,726.34 657.00,736.63 C657.00,743.68 656.63,746.23 655.43,747.43 ZM 690.17 746.35 C688.31,748.03 684.88,748.55 683.67,747.33 C683.30,746.97 683.00,741.79 683.00,735.83 L 683.00 725.00 L 686.46 725.00 C691.07,725.00 692.00,726.98 692.00,736.78 C692.00,743.17 691.65,745.01 690.17,746.35 ZM 877.43 746.43 C875.79,748.07 872.43,748.55 871.69,747.25 C871.45,746.84 870.94,741.66 870.56,735.75 L 869.87 725.00 L 873.31 725.00 C877.72,725.00 878.74,726.34 879.03,732.50 C879.43,741.34 879.04,744.82 877.43,746.43 ZM 326.71 759.25 C327.22,761.86 327.06,762.00 323.48,762.00 L 319.72 762.00 L 320.37 755.75 C320.73,752.31 321.31,745.79 321.66,741.25 C322.01,736.71 322.61,733.00 322.99,733.00 C323.37,733.00 324.25,738.29 324.93,744.75 C325.61,751.21 326.42,757.74 326.71,759.25 ZM 193.00 761.25 C193.00,761.66 191.45,762.00 189.56,762.00 C187.67,762.00 185.94,761.66 185.71,761.25 C185.49,760.84 185.90,756.67 186.61,752.00 C187.33,747.33 187.93,741.81 187.96,739.75 C188.04,732.07 189.78,736.39 191.37,748.25 C192.27,754.99 193.00,760.84 193.00,761.25 ZM 261.43 395.43 C259.37,397.49 258.41,397.41 256.00,395.00 C253.47,392.47 253.47,390.79 256.00,388.50 C260.42,384.50 265.66,391.20 261.43,395.43 ZM 321.80 282.80 C319.38,285.22 314.00,283.01 314.00,279.58 C314.00,277.91 317.26,275.00 319.13,275.00 C322.55,275.00 324.35,280.25 321.80,282.80 ZM 290.50 261.00 C288.48,263.23 287.32,263.42 284.75,261.92 C282.74,260.75 282.43,256.97 284.20,255.20 C288.08,251.32 294.19,256.93 290.50,261.00 ZM 285.44 443.07 C282.36,446.47 278.00,444.91 278.00,440.42 C278.00,437.46 280.44,435.64 283.42,436.39 C286.67,437.21 287.69,440.58 285.44,443.07 Z" fill="rgb(31,39,31)"/>
<path d="M 743.46 682.75 C743.20,682.06 743.10,580.03 743.24,456.00 L 743.50 230.50 L 831.50 230.53 L 842.37 233.28 C856.47,236.83 865.72,241.72 874.02,250.00 C881.95,257.90 885.28,263.93 888.78,276.73 L 891.45 286.50 L 891.77 355.13 C892.07,420.34 891.99,424.25 890.11,433.47 C888.80,439.87 886.67,446.10 883.87,451.75 C871.90,475.92 850.05,484.92 803.25,484.98 L 791.00 485.00 L 791.00 684.00 L 767.47 684.00 C749.56,684.00 743.82,683.70 743.46,682.75 ZM 745.37 676.25 C747.15,679.94 749.84,678.62 759.68,669.25 C765.84,663.38 768.71,663.49 775.43,669.85 C781.28,675.38 784.15,677.16 785.66,676.18 C787.01,675.31 788.38,506.09 787.14,494.35 C786.49,488.23 785.74,485.64 784.14,483.92 C781.31,480.89 781.17,473.69 783.89,471.37 C788.47,467.44 795.49,466.12 812.80,465.93 C821.99,465.83 829.95,465.42 830.50,465.02 C832.98,463.19 844.84,460.00 849.14,460.00 C851.75,460.00 854.16,459.55 854.50,459.00 C854.84,458.45 856.20,458.00 857.52,458.00 C860.32,458.00 863.66,454.83 865.59,450.34 C867.56,445.76 871.25,443.25 876.11,443.18 C880.85,443.11 884.44,440.41 886.64,435.27 C889.14,429.39 890.14,398.59 889.70,341.00 C889.23,279.10 888.95,276.05 882.64,264.00 C877.13,253.49 865.77,243.74 853.00,238.57 C850.53,237.57 844.45,235.87 839.50,234.79 C831.64,233.08 825.22,232.76 788.84,232.32 L 747.18 231.80 L 745.53 234.31 C744.01,236.63 743.91,253.91 744.21,455.66 C744.39,576.02 744.91,675.29 745.37,676.25 ZM 224.04 681.07 C223.39,679.87 223.00,668.81 223.00,652.07 C223.00,637.18 222.64,625.00 222.21,625.00 C220.66,625.00 206.91,638.28 205.26,641.36 C204.23,643.30 203.38,647.94 203.04,653.50 L 202.50 662.50 L 198.11 662.81 L 193.73 663.13 L 194.21 653.31 C194.90,639.15 197.30,635.04 213.87,619.54 C222.80,611.19 223.00,610.43 223.00,585.54 C223.00,573.69 222.65,564.00 222.23,564.00 C220.42,564.00 202.95,582.82 201.49,586.34 C200.33,589.14 199.93,593.21 200.01,601.34 C200.06,607.48 200.09,613.31 200.06,614.31 C200.01,615.78 199.30,616.06 196.25,615.81 L 192.50 615.50 L 192.22 604.75 C192.06,598.84 191.55,594.00 191.08,594.00 C189.47,594.00 177.76,607.33 176.30,610.82 C175.50,612.74 174.59,619.19 174.27,625.15 L 173.70 636.00 L 165.84 636.00 L 166.22 623.75 C166.43,617.01 166.96,610.71 167.41,609.75 C168.05,608.35 167.74,608.00 165.86,608.01 C162.47,608.02 153.92,612.28 151.08,615.37 C148.23,618.46 146.06,618.68 142.98,616.18 C141.13,614.69 140.93,614.00 141.82,612.34 C144.48,607.36 156.45,600.76 166.03,598.99 C169.59,598.33 173.73,596.93 175.23,595.88 C179.14,593.14 195.00,577.89 195.00,576.86 C195.00,576.39 190.53,576.00 185.07,576.00 C176.01,576.00 175.08,575.82 174.50,574.00 C174.15,572.90 174.15,571.10 174.50,570.00 C175.09,568.15 176.03,568.00 186.82,567.96 C193.24,567.93 200.45,567.54 202.84,567.07 C208.52,565.98 214.71,559.94 219.16,551.18 L 222.50 544.61 L 222.80 497.64 C223.08,452.73 223.00,450.37 221.05,443.94 C217.98,433.84 212.86,427.17 197.78,413.66 C190.32,406.97 177.31,395.23 168.86,387.57 C168.10,386.88 167.37,386.22 166.67,385.58 L 166.67 385.58 C150.69,371.08 149.19,369.72 148.65,370.03 C148.57,370.08 148.51,370.16 148.43,370.24 C147.17,371.50 143.05,388.88 142.43,395.50 L 141.78 402.50 L 148.16 408.50 C151.66,411.80 163.40,422.30 174.23,431.82 C199.09,453.67 207.17,462.23 210.10,469.79 C212.12,474.99 212.37,477.93 212.97,502.50 C213.39,519.70 213.26,530.71 212.62,532.83 C211.26,537.33 204.68,544.61 199.63,547.20 C196.81,548.65 192.39,549.59 185.71,550.16 C180.32,550.62 174.69,551.63 173.21,552.40 C167.31,555.45 163.29,560.70 159.60,570.15 C157.62,575.24 154.83,581.08 153.41,583.12 C148.89,589.65 138.94,595.00 131.31,595.00 C127.97,595.00 127.89,594.90 128.19,591.35 C128.53,587.40 129.27,586.78 135.81,585.03 C143.00,583.12 147.24,578.35 150.92,568.08 C152.68,563.17 155.44,557.31 157.06,555.08 C158.68,552.85 160.00,550.80 160.00,550.53 C160.00,550.26 150.21,549.92 138.25,549.77 L 116.50 549.50 L 116.50 541.50 L 155.00 541.00 C192.38,540.51 193.60,540.44 197.00,538.32 C203.33,534.37 204.00,532.11 204.00,514.67 L 204.00 499.16 L 200.25 497.96 C192.32,495.42 178.03,487.89 170.43,482.24 C159.83,474.37 152.28,465.97 146.19,455.31 C136.27,437.95 132.74,424.97 132.65,405.50 C132.56,384.61 136.28,371.27 149.67,344.56 C158.02,327.90 170.51,308.62 192.13,279.00 C194.75,275.42 199.84,268.45 203.45,263.50 C207.07,258.55 213.24,249.77 217.18,244.00 C218.38,242.23 219.43,240.66 220.37,239.26 C224.36,233.30 226.13,230.65 227.75,230.74 C229.43,230.83 230.94,233.88 234.57,239.25 C238.35,244.83 248.35,258.63 256.80,269.91 C265.24,281.19 272.57,291.20 273.08,292.15 C273.59,293.09 273.99,297.16 273.99,301.18 L 273.98 308.50 L 271.42 305.25 C270.01,303.46 268.39,302.00 267.82,302.00 C267.25,302.00 259.91,308.86 251.50,317.25 C232.93,335.77 232.88,335.87 232.52,358.25 C232.38,366.36 232.48,373.00 232.72,373.00 C233.18,373.00 259.57,348.31 274.75,333.69 L 283.00 325.74 L 283.00 271.92 L 279.00 268.11 C275.47,264.75 275.00,263.77 275.00,259.72 C275.00,253.43 276.37,250.35 280.23,248.00 C286.48,244.19 295.47,246.14 298.48,251.97 C301.58,257.95 299.31,267.16 294.05,269.97 C292.05,271.04 292.00,271.84 292.00,300.46 L 292.00 329.85 L 267.12 353.43 C240.67,378.49 238.21,381.18 234.80,388.70 C232.78,393.16 232.59,395.42 232.21,420.37 C231.94,438.39 232.14,447.11 232.83,446.87 C233.91,446.48 254.64,427.14 272.00,410.33 C277.77,404.73 283.45,399.33 284.61,398.33 C285.77,397.32 290.89,392.68 295.98,388.02 C301.08,383.36 305.93,379.04 306.78,378.42 C307.95,377.56 308.13,376.40 307.55,373.40 C306.12,366.05 306.34,364.92 309.75,362.27 L 313.00 359.74 L 314.99 364.24 C316.08,366.71 318.21,373.63 319.72,379.61 C322.18,389.38 322.46,392.20 322.41,407.00 C322.36,422.02 322.11,424.30 319.62,432.44 C311.62,458.71 295.01,478.91 271.84,490.58 C267.80,492.62 263.24,494.64 261.70,495.09 L 258.89 495.89 L 259.20 491.21 L 259.50 486.54 L 268.80 481.50 C281.40,474.68 288.54,468.73 296.03,458.83 C306.60,444.85 311.09,433.06 313.02,414.23 C313.94,405.34 313.07,387.74 311.65,386.32 C311.17,385.84 273.18,421.20 253.84,440.13 C245.97,447.82 240.92,452.58 237.69,458.36 C231.87,468.76 231.95,482.45 232.19,522.46 C232.20,523.88 232.21,525.33 232.21,526.81 C232.24,531.30 232.26,535.42 232.27,539.19 C232.38,568.23 232.42,576.94 236.29,583.32 C238.45,586.88 241.81,589.72 247.05,594.95 C261.10,609.00 262.27,611.73 262.82,631.70 C263.05,640.06 262.95,648.08 262.59,649.51 C262.01,651.81 261.50,652.08 258.22,651.81 L 254.50 651.50 L 253.94 634.50 C253.62,624.58 252.87,616.28 252.15,614.58 C250.91,611.64 234.34,594.00 232.82,594.00 C232.37,594.00 232.00,613.31 232.00,636.92 C232.00,660.52 231.73,680.55 231.39,681.42 C230.51,683.71 225.32,683.46 224.04,681.07 ZM 625.58 687.96 C592.10,682.69 575.12,667.17 567.34,634.73 C565.74,628.06 565.58,615.13 565.25,468.50 C565.02,366.29 565.26,304.86 565.92,296.50 C568.47,263.88 578.87,245.58 601.00,234.79 C612.54,229.17 620.81,227.07 634.50,226.29 C660.06,224.85 680.49,231.37 694.50,245.46 C705.20,256.22 710.37,268.49 712.98,289.30 C713.57,293.99 714.00,321.52 714.00,354.13 L 714.00 410.81 L 708.25 411.19 C705.09,411.40 694.70,411.70 685.17,411.86 C669.11,412.12 667.82,412.01 667.42,410.32 C667.19,409.32 666.83,381.95 666.63,349.50 C666.25,286.40 666.17,285.41 661.06,276.32 C659.87,274.20 657.45,271.48 655.70,270.28 C651.39,267.32 642.86,265.62 636.26,266.40 C626.25,267.58 620.63,271.99 616.40,282.00 C614.57,286.34 614.48,292.18 614.00,449.00 C613.72,538.38 613.77,615.34 614.10,620.02 C615.08,633.87 619.24,641.25 628.50,645.62 C638.24,650.21 646.43,648.31 656.16,639.19 C658.91,636.61 661.56,634.61 662.05,634.74 C662.53,634.87 662.66,634.29 662.34,633.45 C661.98,632.51 662.25,632.03 663.04,632.21 C663.57,632.33 664.03,632.22 664.42,631.69 C663.83,633.38 663.10,634.86 662.20,636.62 C659.40,642.09 655.04,645.61 648.77,647.48 C642.01,649.48 638.81,649.38 631.00,646.94 C621.94,644.10 620.48,642.90 616.52,635.04 C613.81,629.65 612.82,626.16 612.09,619.31 C611.05,609.57 611.48,283.62 612.54,275.78 C613.06,271.94 612.79,270.52 611.12,268.17 L 609.06 265.27 L 611.60 260.18 C614.41,254.54 618.28,251.64 624.47,250.54 C626.65,250.15 629.80,249.12 631.47,248.25 C635.66,246.06 648.05,246.16 654.42,248.44 C661.57,250.99 664.58,253.61 667.54,259.86 L 670.17 265.40 L 667.58 267.29 C664.45,269.57 664.39,271.18 667.13,280.21 C669.01,286.39 669.12,287.85 668.08,292.36 C667.22,296.08 666.98,312.57 667.20,352.00 L 667.50 406.50 L 670.18 406.81 C673.99,407.25 678.26,404.74 682.51,399.55 C684.53,397.09 686.98,394.82 687.97,394.51 C690.51,393.70 694.80,395.79 699.75,400.23 C702.09,402.33 705.18,404.58 706.61,405.23 L 706.74 405.29 C707.78,405.77 708.62,406.15 709.29,405.95 C711.93,405.17 711.88,395.28 711.62,346.10 L 711.61 344.62 C711.27,279.67 711.00,276.57 704.46,263.50 C699.26,253.12 698.66,252.23 692.96,246.45 C685.55,238.95 674.58,233.47 661.74,230.85 C653.03,229.07 649.26,228.84 636.50,229.30 C627.55,229.63 619.28,230.48 616.00,231.41 C612.97,232.27 609.32,232.98 607.89,232.99 C606.45,232.99 603.53,234.40 601.39,236.11 C599.25,237.82 596.60,239.63 595.50,240.13 C590.28,242.51 580.25,252.35 576.87,258.38 C573.99,263.54 572.00,268.04 572.00,269.40 C572.00,270.29 571.60,271.81 571.12,272.76 C569.09,276.76 567.71,285.31 567.04,298.00 C565.92,319.41 566.67,613.45 567.86,620.90 C569.81,633.06 573.21,644.09 575.47,645.57 C576.64,646.34 580.71,647.31 584.52,647.73 C591.41,648.50 591.47,648.53 595.32,653.68 C597.73,656.93 600.79,659.62 603.49,660.89 C609.06,663.51 626.82,668.08 634.50,668.88 C645.04,669.97 655.98,668.27 665.28,664.10 C668.70,662.57 673.10,661.01 675.05,660.65 C677.76,660.14 680.44,658.09 686.30,652.02 C696.18,641.79 697.73,640.77 701.73,641.92 C706.08,643.17 707.35,641.34 709.37,630.93 C711.80,618.40 712.74,513.77 710.45,510.29 C708.97,508.03 708.68,508.00 689.18,508.00 C675.13,508.00 669.05,508.35 668.20,509.20 C667.30,510.10 667.00,524.20 666.99,566.45 C666.98,603.87 666.93,618.38 665.72,626.28 C666.52,618.46 666.53,601.27 666.21,565.41 C665.90,531.07 666.06,507.10 666.59,506.79 C667.09,506.50 677.96,506.49 690.75,506.77 L 714.00 507.27 L 713.99 565.39 C713.99,626.85 713.47,635.70 709.23,646.69 C698.82,673.73 677.34,687.39 643.50,688.50 C636.90,688.71 628.84,688.47 625.58,687.96 ZM 360.00 230.00 L 418.04 230.00 L 419.00 232.25 C419.52,233.49 422.19,244.62 424.92,257.00 C425.02,257.47 425.13,257.94 425.23,258.41 C420.61,238.38 419.46,235.98 417.39,234.32 C414.54,232.04 414.13,232.01 389.36,232.00 L 364.23 232.00 L 362.53 235.57 C361.60,237.53 361.12,239.88 361.47,240.79 C362.08,242.38 363.09,471.69 363.08,608.77 C363.08,645.77 363.34,676.73 363.66,677.57 C364.46,679.64 366.25,678.87 367.74,675.80 C369.54,672.12 379.16,665.00 382.33,665.00 C384.10,665.00 386.79,666.64 390.44,669.94 C398.41,677.17 400.69,678.50 402.47,677.02 C404.30,675.50 404.36,669.91 404.44,487.00 L 404.50 349.50 L 401.25 344.39 C399.46,341.58 398.00,338.37 398.00,337.26 C398.00,331.56 408.60,331.13 410.86,336.74 C412.44,340.63 412.57,345.13 411.18,347.68 C410.53,348.89 410.00,351.16 410.00,352.75 C410.00,356.98 419.36,401.62 424.63,422.50 C426.01,428.00 427.85,435.42 428.71,439.00 C429.56,442.58 431.77,451.35 433.61,458.50 C435.45,465.65 437.41,474.79 437.98,478.81 C438.55,482.83 439.62,487.33 440.37,488.81 C441.12,490.29 442.50,496.00 443.45,501.50 C445.70,514.54 449.86,531.81 451.55,535.09 C452.29,536.52 453.18,540.12 453.53,543.09 C453.88,546.07 454.80,550.20 455.58,552.27 C456.36,554.34 457.00,557.60 457.00,559.50 C457.00,561.40 457.66,564.66 458.46,566.73 C459.26,568.80 460.33,572.75 460.84,575.50 C461.35,578.25 462.99,584.78 464.47,590.00 C465.96,595.22 467.78,602.88 468.52,607.00 C469.96,615.06 471.05,620.04 473.43,629.50 C474.26,632.80 475.88,640.11 477.03,645.74 C478.19,651.37 480.22,658.67 481.56,661.97 C482.90,665.26 484.00,669.26 484.00,670.86 C484.00,672.45 484.73,674.36 485.61,675.10 C487.00,676.24 487.50,676.10 489.11,674.11 C490.15,672.83 491.00,671.01 491.00,670.07 C491.00,667.30 497.27,665.00 504.78,665.01 C512.52,665.01 513.96,665.78 521.72,674.00 C526.12,678.66 527.19,679.33 528.71,678.39 C530.30,677.41 530.57,675.03 531.11,656.89 C531.45,645.68 531.79,546.59 531.86,436.70 L 532.00 236.91 L 529.55 234.45 C527.13,232.04 526.80,232.00 510.30,232.02 C501.06,232.02 492.97,232.37 492.31,232.79 C488.95,234.92 488.87,238.37 489.06,368.98 C489.16,440.22 489.13,508.62 489.00,521.00 C488.87,533.29 488.86,539.56 488.29,539.61 C487.75,539.65 486.71,534.02 484.58,522.52 C484.40,521.56 484.21,520.55 484.02,519.50 C482.80,512.90 479.11,495.80 475.82,481.50 C474.00,473.54 471.96,464.58 470.25,456.96 C471.64,463.11 473.18,469.82 474.51,475.50 C478.58,492.93 486.94,531.88 487.03,533.82 C487.05,534.19 487.48,533.78 487.99,532.91 C488.57,531.92 488.54,513.44 487.93,484.41 C487.38,458.61 487.05,390.92 487.21,334.00 L 487.50 230.50 L 532.50 230.50 L 532.50 683.50 L 507.34 683.77 L 482.17 684.03 L 479.01 670.77 C477.27,663.47 472.25,641.97 467.85,623.00 C463.46,604.03 456.52,574.10 452.43,556.50 C448.34,538.90 442.95,515.50 440.44,504.50 C437.93,493.50 432.32,468.98 427.97,450.00 C416.65,400.60 407.00,356.47 407.00,354.13 C407.00,353.02 406.66,351.91 406.25,351.65 L 406.25 351.65 C405.84,351.65 405.50,426.12 405.50,517.35 L 405.50 683.50 L 382.75 683.77 L 360.00 684.04 ZM 282.28 634.80 C281.70,634.09 281.04,628.33 280.79,622.00 C280.17,605.63 279.21,603.83 261.50,585.98 C252.03,576.42 246.41,569.93 245.08,566.98 C243.15,562.73 243.04,560.54 243.02,523.80 C243.00,483.69 243.44,478.09 247.25,470.50 C248.36,468.30 253.93,462.03 259.63,456.58 L 270.00 446.65 L 270.00 441.21 C270.00,436.22 270.32,435.44 273.88,431.88 C277.33,428.43 278.31,428.00 282.66,428.00 C286.66,428.00 288.13,428.53 290.71,430.88 C294.67,434.50 295.85,439.85 293.90,445.36 C291.85,451.17 288.13,453.50 280.95,453.50 L 275.04 453.50 L 265.49 463.00 C259.70,468.77 256.39,471.94 254.50,475.81 C251.99,480.95 252.00,487.32 252.01,502.64 C252.02,503.27 252.02,503.91 252.02,504.57 C252.03,527.49 252.13,528.67 254.27,532.41 C255.49,534.55 257.77,537.25 259.32,538.41 C262.06,540.43 263.36,540.51 301.07,540.78 L 340.00 541.07 L 340.00 550.00 L 294.83 550.00 L 297.90 553.88 C299.59,556.01 302.56,561.97 304.49,567.12 C308.82,578.63 312.85,582.85 321.97,585.41 L 328.00 587.10 L 328.00 595.00 L 323.75 594.99 C318.16,594.98 310.61,591.34 304.89,585.89 C301.15,582.33 299.56,579.63 296.46,571.55 C290.23,555.34 284.99,551.15 269.44,549.95 C262.11,549.39 259.57,548.75 256.19,546.62 L 252.00 543.97 L 252.00 552.54 C252.00,561.45 253.45,566.19 256.54,567.38 C257.44,567.72 263.08,568.00 269.08,568.00 L 280.00 568.00 L 280.00 576.91 L 265.50 577.50 L 275.22 587.54 C284.65,597.28 285.14,597.63 291.17,598.87 C294.59,599.58 299.17,601.07 301.34,602.17 C305.35,604.22 315.00,612.62 315.00,614.07 C315.00,614.51 313.65,615.83 311.99,617.00 L 308.99 619.15 L 304.82 615.58 C300.47,611.86 293.40,608.00 290.93,608.00 C289.76,608.00 289.50,610.47 289.50,621.75 L 289.50 635.50 L 286.41 635.80 C284.72,635.97 282.86,635.52 282.28,634.80 ZM 222.84 405.50 L 222.50 392.50 L 218.58 385.50 C216.43,381.65 211.90,375.80 208.53,372.50 C193.04,357.36 167.91,334.50 166.77,334.50 C165.40,334.50 154.53,353.82 153.49,358.09 C152.92,360.45 154.79,362.44 174.68,380.56 C186.68,391.50 198.52,402.26 201.00,404.47 C203.47,406.69 209.32,412.20 214.00,416.72 L 222.50 424.94 L 222.84 421.72 C223.02,419.95 223.02,412.65 222.84,405.50 ZM 252.45 403.45 C240.14,397.38 246.75,377.46 260.44,379.34 L 264.55 379.90 L 289.30 355.70 L 314.05 331.50 L 314.02 311.79 C314.00,292.93 313.91,292.02 311.95,290.97 C306.77,288.20 304.54,279.73 307.48,274.04 C312.83,263.70 327.50,264.90 330.70,275.95 C332.49,282.14 331.07,286.79 326.42,289.95 L 322.80 292.39 L 323.15 313.23 L 323.50 334.06 L 271.00 386.36 L 271.00 391.96 C271.00,395.41 270.40,398.41 269.44,399.78 C265.98,404.72 258.36,406.37 252.45,403.45 ZM 816.21 444.44 C819.85,443.90 821.67,442.93 824.27,440.12 C826.12,438.12 830.69,434.93 834.43,433.04 C838.17,431.14 841.86,428.62 842.63,427.44 C842.82,427.16 842.99,426.83 843.16,426.46 C840.10,436.47 834.28,441.81 824.55,443.99 C819.25,445.18 796.74,445.92 793.06,445.03 C791.51,444.65 790.28,443.36 789.66,441.47 C789.09,439.71 788.52,406.44 788.28,359.56 C787.91,290.72 787.66,280.10 786.28,276.56 C785.41,274.33 784.61,270.92 784.50,269.00 C784.39,267.08 783.84,264.38 783.28,263.01 C781.76,259.25 784.57,252.35 787.94,251.57 C793.67,250.25 814.01,249.82 822.27,250.85 C834.96,252.42 837.97,253.59 844.32,259.45 C849.73,264.45 850.00,264.94 850.00,269.56 C850.00,273.66 849.57,274.77 847.28,276.59 C844.60,278.73 844.58,278.83 845.86,283.84 C846.58,286.64 846.83,289.47 846.41,290.14 C846.00,290.81 845.76,317.94 845.87,350.43 C845.92,362.74 845.91,373.92 845.85,383.49 C845.87,374.74 845.83,364.29 845.74,351.77 C845.40,305.34 845.07,294.63 843.82,290.50 C841.79,283.79 839.75,280.04 836.33,276.79 C831.21,271.93 826.09,270.76 807.75,270.24 L 791.00 269.77 L 791.00 356.92 C791.00,443.06 791.02,444.07 792.99,444.80 C795.31,445.66 809.34,445.44 816.21,444.44 ZM 222.82 357.72 C222.51,342.83 222.42,342.28 219.29,335.97 C216.77,330.90 213.01,326.42 201.85,315.24 C194.03,307.40 187.37,301.33 187.06,301.74 C182.35,308.06 171.99,324.60 172.21,325.46 C172.37,326.08 177.90,331.53 184.50,337.55 C191.10,343.57 202.12,354.01 209.00,360.74 C215.87,367.46 221.87,372.98 222.32,372.99 C222.77,372.99 223.00,366.12 222.82,357.72 ZM 204.00 486.14 C204.00,479.90 201.83,472.30 198.73,467.69 C196.08,463.75 151.90,423.19 144.73,418.12 C142.86,416.79 142.81,416.91 143.47,421.12 C148.06,450.12 168.04,475.16 195.19,485.92 C195.54,486.06 195.88,486.19 196.21,486.32 C201.30,488.34 203.07,489.04 203.68,488.48 C204.01,488.18 204.01,487.52 204.00,486.51 C204.00,486.39 204.00,486.27 204.00,486.14 ZM 247.43 308.69 C256.66,299.78 260.75,296.54 260.86,293.17 C260.94,290.83 259.09,288.43 255.72,284.03 C254.91,282.98 254.01,281.81 253.03,280.50 C249.33,275.55 243.26,267.34 239.54,262.25 C235.82,257.16 232.60,253.00 232.38,253.00 C232.17,253.00 232.00,268.75 232.00,288.00 C232.00,307.25 232.13,323.00 232.29,323.00 C232.46,323.00 239.27,316.56 247.43,308.69 ZM 222.77 271.32 L 222.50 253.52 L 215.07 263.51 C200.77,282.74 197.33,287.53 195.44,290.78 L 193.53 294.06 L 208.02 308.48 L 222.50 322.90 L 222.77 306.01 C222.92,296.73 222.92,281.12 222.77,271.32 ZM 284.00 525.05 L 271.50 524.50 L 271.50 516.50 L 305.68 516.24 C339.56,515.98 339.86,515.99 340.52,518.06 C340.88,519.21 340.92,521.17 340.61,522.42 C340.07,524.59 339.46,524.72 327.27,525.34 C313.92,526.02 304.85,525.96 284.00,525.05 ZM 116.69 524.55 C114.72,522.58 114.48,518.92 116.20,517.20 C117.09,516.31 126.13,516.00 150.70,516.00 L 184.00 516.00 L 184.00 525.00 L 157.15 525.00 C142.38,525.00 127.61,525.28 124.34,525.62 C119.51,526.13 118.07,525.93 116.69,524.55 ZM 261.43 395.43 C265.66,391.20 260.42,384.50 256.00,388.50 C253.47,390.79 253.47,392.47 256.00,395.00 C258.41,397.41 259.37,397.49 261.43,395.43 ZM 321.80 282.80 C324.35,280.25 322.55,275.00 319.13,275.00 C317.26,275.00 314.00,277.91 314.00,279.58 C314.00,283.01 319.38,285.22 321.80,282.80 ZM 290.50 261.00 C294.19,256.93 288.08,251.32 284.20,255.20 C282.43,256.97 282.74,260.75 284.75,261.92 C287.32,263.42 288.48,263.23 290.50,261.00 ZM 285.44 443.07 C287.69,440.58 286.67,437.21 283.42,436.39 C280.44,435.64 278.00,437.46 278.00,440.42 C278.00,444.91 282.36,446.47 285.44,443.07 ZM 190.97 745.49 C189.51,735.77 188.04,732.70 187.96,739.75 C187.93,741.81 187.33,747.33 186.61,752.00 C187.33,747.33 187.94,741.25 187.97,738.50 C188.05,731.91 189.95,728.65 190.02,735.00 C190.04,736.89 190.43,741.14 190.97,745.49 ZM 432.43 290.67 C440.06,324.68 449.64,366.83 455.84,393.71 C448.64,362.61 437.70,314.67 434.48,300.00 C433.76,296.73 433.08,293.62 432.43,290.67 ZM 844.65 420.01 C845.12,416.34 845.43,411.16 845.62,403.77 C845.48,410.84 845.29,415.56 845.06,417.32 C844.94,418.24 844.80,419.14 844.65,420.01 ZM 192.98 760.75 C192.98,760.78 192.98,760.82 192.97,760.85 C192.85,759.63 192.38,755.90 191.78,751.35 C192.45,756.09 192.97,760.14 192.98,760.75 ZM 189.54 762.00 C187.83,762.11 186.06,761.89 185.71,761.25 C185.94,761.66 187.65,762.00 189.54,762.00 Z" fill="rgb(166,99,55)"/>
<path d="M 432.43 290.67 C433.08,293.62 433.76,296.73 434.48,300.00 C437.70,314.67 448.64,362.61 455.84,393.71 C457.61,401.41 459.11,407.85 460.21,412.50 C462.42,421.85 465.49,435.35 467.03,442.50 C467.78,445.96 468.95,451.21 470.25,456.96 L 470.25 456.97 C471.96,464.58 474.00,473.54 475.82,481.50 C479.11,495.80 482.80,512.90 484.02,519.50 C484.21,520.55 484.40,521.56 484.58,522.52 C486.71,534.02 487.75,539.65 488.29,539.61 C488.86,539.56 488.87,533.29 489.00,521.00 C489.13,508.62 489.16,440.22 489.06,368.98 C488.87,238.37 488.95,234.92 492.31,232.79 C492.97,232.37 501.06,232.02 510.30,232.02 C526.80,232.00 527.13,232.04 529.55,234.45 L 532.00 236.91 L 531.86 436.70 C531.79,546.59 531.45,645.68 531.11,656.89 C530.57,675.03 530.30,677.41 528.71,678.39 C527.19,679.33 526.12,678.66 521.72,674.00 C513.96,665.78 512.52,665.01 504.78,665.01 C497.27,665.00 491.00,667.30 491.00,670.07 C491.00,671.01 490.15,672.83 489.11,674.11 C487.50,676.10 487.00,676.24 485.61,675.10 C484.73,674.36 484.00,672.45 484.00,670.86 C484.00,669.26 482.90,665.26 481.56,661.97 C480.22,658.67 478.19,651.37 477.03,645.74 C475.88,640.11 474.26,632.80 473.43,629.50 C471.05,620.04 469.96,615.06 468.52,607.00 C467.78,602.88 465.96,595.22 464.47,590.00 C462.99,584.78 461.35,578.25 460.84,575.50 C460.33,572.75 459.26,568.80 458.46,566.73 C457.66,564.66 457.00,561.40 457.00,559.50 C457.00,557.60 456.36,554.34 455.58,552.27 C454.80,550.20 453.88,546.07 453.53,543.09 C453.18,540.12 452.29,536.52 451.55,535.09 C449.86,531.81 445.70,514.54 443.45,501.50 C442.50,496.00 441.12,490.29 440.37,488.81 C439.62,487.33 438.55,482.83 437.98,478.81 C437.41,474.79 435.45,465.65 433.61,458.50 C431.77,451.35 429.56,442.58 428.71,439.00 C427.85,435.42 426.01,428.00 424.63,422.50 C419.36,401.62 410.00,356.98 410.00,352.75 C410.00,351.16 410.53,348.89 411.18,347.68 C412.57,345.13 412.44,340.63 410.86,336.74 C408.60,331.13 398.00,331.56 398.00,337.26 C398.00,338.37 399.46,341.58 401.25,344.39 L 404.50 349.50 L 404.44 487.00 C404.36,669.91 404.30,675.50 402.47,677.02 C400.69,678.50 398.41,677.17 390.44,669.94 C386.79,666.64 384.10,665.00 382.33,665.00 C379.16,665.00 369.54,672.12 367.74,675.80 C366.25,678.87 364.46,679.64 363.66,677.57 C363.34,676.73 363.08,645.77 363.08,608.77 C363.09,471.69 362.08,242.38 361.47,240.79 C361.12,239.88 361.60,237.53 362.53,235.57 L 364.23 232.00 L 389.36 232.00 C414.13,232.01 414.54,232.04 417.39,234.32 C419.46,235.98 420.61,238.38 425.23,258.41 C427.22,267.42 429.70,278.53 432.43,290.67 ZM 745.37 676.25 C744.91,675.29 744.39,576.02 744.21,455.66 C743.91,253.91 744.01,236.63 745.53,234.31 L 747.18 231.80 L 788.84 232.32 C825.22,232.76 831.64,233.08 839.50,234.79 C844.45,235.87 850.53,237.57 853.00,238.57 C865.77,243.74 877.13,253.49 882.64,264.00 C888.95,276.05 889.23,279.10 889.70,341.00 C890.14,398.59 889.14,429.39 886.64,435.27 C884.44,440.41 880.85,443.11 876.11,443.18 C871.25,443.25 867.56,445.76 865.59,450.34 C863.66,454.83 860.32,458.00 857.52,458.00 C856.20,458.00 854.84,458.45 854.50,459.00 C854.16,459.55 851.75,460.00 849.14,460.00 C844.84,460.00 832.98,463.19 830.50,465.02 C829.95,465.42 821.99,465.83 812.80,465.93 C795.49,466.12 788.47,467.44 783.89,471.37 C781.17,473.69 781.31,480.89 784.14,483.92 C785.74,485.64 786.49,488.23 787.14,494.35 C788.38,506.09 787.01,675.31 785.66,676.18 C784.15,677.16 781.28,675.38 775.43,669.85 C768.71,663.49 765.84,663.38 759.68,669.25 C749.84,678.62 747.15,679.94 745.37,676.25 ZM 664.42 631.69 C664.99,630.93 665.41,629.31 665.72,626.28 C666.93,618.38 666.98,603.87 666.99,566.45 C667.00,524.20 667.30,510.10 668.20,509.20 C669.05,508.35 675.13,508.00 689.18,508.00 C708.68,508.00 708.97,508.03 710.45,510.29 C712.74,513.77 711.80,618.40 709.37,630.93 C707.35,641.34 706.08,643.17 701.73,641.92 C697.73,640.77 696.18,641.79 686.30,652.02 C680.44,658.09 677.76,660.14 675.05,660.65 C673.10,661.01 668.70,662.57 665.28,664.10 C655.98,668.27 645.04,669.97 634.50,668.88 C626.82,668.08 609.06,663.51 603.49,660.89 C600.79,659.62 597.73,656.93 595.32,653.68 C591.47,648.53 591.41,648.50 584.52,647.73 C580.71,647.31 576.64,646.34 575.47,645.57 C573.21,644.09 569.81,633.06 567.86,620.90 C566.67,613.45 565.92,319.41 567.04,298.00 C567.71,285.31 569.09,276.76 571.12,272.76 C571.60,271.81 572.00,270.29 572.00,269.40 C572.00,268.04 573.99,263.54 576.87,258.38 C580.25,252.35 590.28,242.51 595.50,240.13 C596.60,239.63 599.25,237.82 601.39,236.11 C603.53,234.40 606.45,232.99 607.89,232.99 C609.32,232.98 612.97,232.27 616.00,231.41 C619.28,230.48 627.55,229.63 636.50,229.30 C649.26,228.84 653.03,229.07 661.74,230.85 C674.58,233.47 685.55,238.95 692.96,246.45 C698.66,252.23 699.26,253.12 704.46,263.50 C711.00,276.57 711.27,279.67 711.61,344.62 L 711.62 346.10 C711.88,395.28 711.93,405.17 709.29,405.95 C708.62,406.15 707.78,405.77 706.74,405.29 L 706.61 405.23 C705.18,404.58 702.09,402.33 699.75,400.23 C694.80,395.79 690.51,393.70 687.97,394.51 C686.98,394.82 684.53,397.09 682.51,399.55 C678.26,404.74 673.99,407.25 670.18,406.81 L 667.50 406.50 L 667.20 352.00 C666.98,312.57 667.22,296.08 668.08,292.36 C669.12,287.85 669.01,286.39 667.13,280.21 C664.39,271.18 664.45,269.57 667.58,267.29 L 670.17 265.40 L 667.54 259.86 C664.58,253.61 661.57,250.99 654.42,248.44 C648.05,246.16 635.66,246.06 631.47,248.25 C629.80,249.12 626.65,250.15 624.47,250.54 C618.28,251.64 614.41,254.54 611.60,260.18 L 609.06 265.27 L 611.12 268.17 C612.79,270.52 613.06,271.94 612.54,275.78 C611.48,283.62 611.05,609.57 612.09,619.31 C612.82,626.16 613.81,629.65 616.52,635.04 C620.48,642.90 621.94,644.10 631.00,646.94 C638.81,649.38 642.01,649.48 648.77,647.48 C655.04,645.61 659.40,642.09 662.20,636.62 C663.10,634.86 663.83,633.38 664.42,631.69 ZM 824.55 443.99 C834.28,441.81 840.10,436.47 843.16,426.46 C843.78,425.10 844.27,423.08 844.65,420.01 C844.80,419.14 844.94,418.24 845.06,417.32 C845.29,415.56 845.48,410.84 845.62,403.77 L 845.62 403.77 C845.76,398.31 845.83,391.64 845.85,383.49 C845.91,373.92 845.92,362.74 845.87,350.43 C845.76,317.94 846.00,290.81 846.41,290.14 C846.83,289.47 846.58,286.64 845.86,283.84 C844.58,278.83 844.60,278.73 847.28,276.59 C849.57,274.77 850.00,273.66 850.00,269.56 C850.00,264.94 849.73,264.45 844.32,259.45 C837.97,253.59 834.96,252.42 822.27,250.85 C814.01,249.82 793.67,250.25 787.94,251.57 C784.57,252.35 781.76,259.25 783.28,263.01 C783.84,264.38 784.39,267.08 784.50,269.00 C784.61,270.92 785.41,274.33 786.28,276.56 C787.66,280.10 787.91,290.72 788.28,359.56 C788.52,406.44 789.09,439.71 789.66,441.47 C790.28,443.36 791.51,444.65 793.06,445.03 C796.74,445.92 819.25,445.18 824.55,443.99 Z" fill="rgb(212,99,33)"/>
<path d="M 246.50 787.59 C241.78,785.49 239.11,781.86 238.01,776.06 C237.46,773.13 237.00,758.41 237.00,743.36 L 237.00 716.00 L 242.00 716.00 L 247.00 716.00 L 247.00 744.43 C247.00,760.07 247.43,774.00 247.95,775.37 C248.48,776.75 249.88,778.40 251.07,779.04 C252.89,780.01 253.59,779.86 255.33,778.12 C257.35,776.10 257.41,775.09 257.43,746.02 L 257.45 716.00 L 262.23 716.00 L 267.00 716.00 L 267.00 746.68 C267.00,775.55 266.88,777.62 264.96,781.59 C261.73,788.26 253.81,790.84 246.50,787.59 ZM 396.62 787.97 C392.55,786.75 389.16,783.25 388.00,779.07 C387.46,777.11 387.01,764.47 387.01,751.00 C387.00,729.64 387.23,726.06 388.75,723.07 C391.52,717.65 395.23,715.50 401.82,715.50 C411.92,715.50 416.00,720.65 416.00,733.40 L 416.00 741.00 L 411.00 741.00 L 406.00 741.00 L 406.00 733.70 C406.00,729.36 405.51,725.91 404.80,725.20 C403.14,723.54 400.44,723.70 398.57,725.57 C397.23,726.92 397.00,730.74 397.00,752.01 C397.00,776.58 397.03,776.91 399.22,778.44 C401.99,780.38 402.48,780.38 404.43,778.43 C405.58,777.28 406.00,774.85 406.00,769.43 L 406.00 762.00 L 411.00 762.00 L 416.00 762.00 L 415.98 769.75 C415.95,780.20 413.76,785.08 408.10,787.34 C403.59,789.15 401.03,789.29 396.62,787.97 ZM 431.54 788.32 C427.88,787.30 424.73,784.60 423.36,781.33 C421.36,776.54 421.41,727.35 423.42,722.55 C425.24,718.17 428.53,716.08 434.72,715.35 C441.64,714.53 446.63,716.99 449.10,722.42 C450.75,726.05 450.96,729.35 450.98,752.00 C451.00,779.90 450.61,782.08 444.86,786.29 C442.19,788.25 435.12,789.32 431.54,788.32 ZM 439.17 778.35 C440.85,776.83 441.00,774.66 441.00,752.35 C441.00,729.33 440.89,727.89 439.00,726.00 C436.62,723.62 435.99,723.56 433.44,725.42 C431.64,726.74 431.48,728.42 431.18,749.17 C430.85,772.43 431.57,778.48 434.77,779.31 C435.72,779.56 436.69,779.82 436.92,779.88 C437.15,779.95 438.17,779.26 439.17,778.35 ZM 715.27 787.57 C713.49,786.77 711.13,784.63 710.02,782.81 C708.13,779.71 708.01,777.81 708.00,752.72 C708.00,723.48 708.43,720.73 713.57,717.36 C717.57,714.74 726.97,714.86 730.67,717.57 C736.63,721.93 737.00,723.95 737.00,752.00 C737.00,779.93 736.61,782.08 730.82,786.32 C727.37,788.85 719.50,789.48 715.27,787.57 ZM 725.43 778.43 C726.77,777.09 727.00,773.29 727.00,752.26 C727.00,730.77 726.79,727.43 725.35,725.83 C723.21,723.47 721.48,723.52 719.00,726.00 C717.11,727.89 717.00,729.33 717.00,751.37 C717.00,773.49 717.11,774.87 719.07,777.37 C721.44,780.38 723.19,780.67 725.43,778.43 ZM 137.00 751.95 L 137.00 715.90 L 142.24 716.20 L 147.49 716.50 L 149.30 723.50 C153.84,741.07 157.27,753.67 158.04,755.50 C158.51,756.66 158.89,748.75 158.93,736.75 L 159.00 716.00 L 163.50 716.00 L 168.00 716.00 L 168.00 752.00 L 168.00 788.00 L 163.48 788.00 C158.09,788.00 158.81,789.41 153.04,767.50 C145.83,740.13 146.12,740.73 146.15,753.00 C146.16,758.78 146.14,769.01 146.09,775.75 L 146.00 788.00 L 141.50 788.00 L 137.00 788.00 L 137.00 751.95 ZM 173.00 784.75 C173.00,782.96 174.09,774.53 175.42,766.00 C176.75,757.47 178.80,743.75 179.97,735.50 C183.03,714.00 182.13,715.86 189.33,716.21 L 195.41 716.50 L 197.18 728.50 C200.17,748.76 206.13,785.17 206.71,786.68 C207.15,787.84 206.21,788.05 201.88,787.81 L 196.50 787.50 L 195.31 780.00 C194.66,775.88 194.10,772.39 194.06,772.25 C194.03,772.11 191.78,772.00 189.06,772.00 L 184.12 772.00 L 183.52 776.75 C181.99,788.76 182.40,788.00 177.45,788.00 C173.10,788.00 173.00,787.93 173.00,784.75 ZM 192.98 760.75 C192.97,760.06 192.31,755.00 191.51,749.50 C190.72,744.00 190.04,737.47 190.02,735.00 C189.95,728.65 188.05,731.91 187.97,738.50 C187.94,741.25 187.33,747.33 186.61,752.00 C185.90,756.67 185.49,760.84 185.71,761.25 C186.42,762.55 193.00,762.10 192.98,760.75 ZM 214.00 756.50 L 214.00 725.00 L 209.00 725.00 L 204.00 725.00 L 204.00 720.50 L 204.00 716.00 L 218.50 716.00 L 233.00 716.00 L 233.00 720.50 L 233.00 725.00 L 228.50 725.00 L 224.00 725.00 L 224.00 756.50 L 224.00 788.00 L 219.00 788.00 L 214.00 788.00 L 214.00 756.50 ZM 273.84 787.30 C273.65,786.86 273.62,770.60 273.78,751.16 L 274.05 715.82 L 284.61 716.16 C295.06,716.50 295.20,716.53 298.03,719.71 C301.87,724.01 303.31,729.91 302.78,739.20 C302.42,745.40 301.82,747.67 299.67,750.92 C298.20,753.14 297.00,755.43 297.00,756.00 C297.00,756.58 298.58,763.58 300.50,771.57 C302.42,779.56 304.00,786.52 304.00,787.04 C304.00,787.57 301.81,788.00 299.13,788.00 L 294.26 788.00 L 292.02 777.25 C287.75,756.70 287.84,757.00 285.58,757.00 C283.56,757.00 283.50,757.47 283.50,772.25 L 283.50 787.50 L 278.84 787.80 C276.28,787.97 274.03,787.74 273.84,787.30 ZM 291.43 746.43 C293.28,744.58 293.57,734.61 291.95,728.75 C290.96,725.21 290.68,725.00 286.89,725.00 L 282.87 725.00 L 283.41 736.25 C283.72,742.44 283.97,747.61 283.98,747.75 C284.06,748.77 290.18,747.68 291.43,746.43 ZM 306.92 787.59 C306.49,787.16 315.12,725.14 316.57,718.25 C317.00,716.20 317.61,716.00 323.37,716.00 L 329.69 716.00 L 331.46 728.75 C332.44,735.76 334.75,750.72 336.61,762.00 C338.47,773.28 339.99,783.74 340.00,785.25 C340.00,787.88 339.78,788.00 335.12,788.00 L 330.23 788.00 L 329.52 781.33 C328.52,772.04 328.50,772.00 323.01,772.00 L 318.24 772.00 L 317.37 779.75 L 316.50 787.50 L 311.96 787.80 C309.47,787.96 307.20,787.86 306.92,787.59 ZM 326.71 759.25 C326.42,757.74 325.61,751.21 324.93,744.75 C324.25,738.29 323.37,733.00 322.99,733.00 C322.61,733.00 322.01,736.71 321.66,741.25 C321.31,745.79 320.73,752.31 320.37,755.75 L 319.72 762.00 L 323.48 762.00 C327.06,762.00 327.22,761.86 326.71,759.25 ZM 344.35 780.35 C344.71,776.14 345.00,759.94 345.00,744.35 L 345.00 716.00 L 349.99 716.00 L 354.97 716.00 L 355.24 747.25 L 355.50 778.50 L 362.25 778.80 L 369.00 779.09 L 369.00 783.55 L 369.00 788.00 L 356.35 788.00 L 343.71 788.00 L 344.35 780.35 ZM 457.00 752.00 L 457.00 716.00 L 462.03 716.00 C465.90,716.00 467.22,716.41 467.75,717.75 C468.12,718.71 470.78,727.83 473.64,738.00 L 478.86 756.50 L 479.18 736.50 L 479.50 716.50 L 483.75 716.19 L 488.00 715.89 L 488.00 751.94 L 488.00 788.00 L 483.54 788.00 L 479.08 788.00 L 477.11 781.25 C476.03,777.54 473.71,769.10 471.97,762.50 C470.22,755.90 468.24,748.47 467.55,746.00 C466.51,742.20 466.39,745.10 466.81,764.75 L 467.30 788.00 L 462.15 788.00 L 457.00 788.00 L 457.00 752.00 ZM 502.44 785.80 C502.05,784.58 502.06,770.41 502.46,754.30 L 503.19 725.00 L 498.10 725.00 L 493.00 725.00 L 493.00 720.50 L 493.00 716.00 L 507.50 716.00 L 522.00 716.00 L 522.00 720.50 L 522.00 725.00 L 517.25 725.00 L 512.50 725.00 L 512.81 756.50 L 513.13 788.00 L 508.13 788.00 C503.86,788.00 503.03,787.68 502.44,785.80 ZM 527.00 752.03 L 527.00 716.00 L 539.00 716.00 L 551.00 716.00 L 551.00 720.50 L 551.00 725.00 L 544.00 725.00 L 537.00 725.00 L 537.00 735.50 L 537.00 746.00 L 543.00 746.00 L 549.00 746.00 L 549.00 750.50 L 549.00 755.00 L 542.97 755.00 L 536.94 755.00 L 537.22 766.75 L 537.50 778.50 L 544.57 779.00 L 551.64 779.50 L 551.57 783.50 L 551.50 787.50 L 539.25 787.78 L 527.00 788.06 L 527.00 752.03 ZM 555.00 786.64 C555.00,785.13 562.28,759.01 563.84,754.92 C565.00,751.88 563.95,746.84 558.64,729.86 C556.64,723.46 555.00,717.72 555.00,717.11 C555.00,716.45 556.96,716.00 559.85,716.00 L 564.70 716.00 L 567.46 726.75 C568.98,732.66 570.55,737.85 570.95,738.28 C571.34,738.72 573.00,733.99 574.62,727.78 L 577.56 716.50 L 582.91 716.19 C587.69,715.92 588.18,716.08 587.58,717.66 C585.97,721.86 579.10,744.94 578.48,748.24 C577.81,751.82 579.11,757.29 585.59,778.30 C586.92,782.59 588.00,786.55 588.00,787.10 C588.00,787.68 585.83,787.98 582.87,787.80 L 577.73 787.50 L 574.78 775.25 C573.15,768.51 571.50,763.00 571.10,763.00 C570.71,763.00 569.60,766.26 568.65,770.25 C567.69,774.24 566.22,779.86 565.38,782.75 L 563.86 788.00 L 559.43 788.00 C556.36,788.00 555.00,787.58 555.00,786.64 ZM 599.86 787.25 C599.79,786.84 599.83,772.69 599.96,755.81 L 600.20 725.12 L 595.35 724.81 L 590.50 724.50 L 590.19 720.25 L 589.89 716.00 L 604.44 716.00 L 619.00 716.00 L 619.00 720.50 L 619.00 725.00 L 614.50 725.00 L 610.00 725.00 L 610.00 756.50 L 610.00 788.00 L 605.00 788.00 C602.25,788.00 599.94,787.66 599.86,787.25 ZM 638.00 752.00 L 638.00 716.00 L 647.55 716.00 C659.13,716.00 662.34,717.34 665.06,723.32 C667.22,728.07 667.73,742.82 665.97,749.19 C664.56,754.25 659.89,758.00 655.01,758.00 C647.83,758.00 648.00,757.62 648.00,773.61 L 648.00 788.00 L 643.00 788.00 L 638.00 788.00 L 638.00 752.00 ZM 655.43 747.43 C656.63,746.23 657.00,743.68 657.00,736.63 C657.00,726.34 656.35,725.00 651.30,725.00 L 648.00 725.00 L 648.00 736.33 C648.00,742.57 648.30,747.97 648.67,748.33 C649.88,749.55 653.83,749.02 655.43,747.43 ZM 673.00 752.00 L 673.00 716.00 L 682.55 716.00 C697.26,716.00 700.84,719.00 701.78,732.15 C702.43,741.21 701.38,747.16 698.36,751.61 L 695.83 755.34 L 699.43 770.92 C701.41,779.49 703.03,786.84 703.02,787.25 C703.01,787.66 700.76,788.00 698.02,788.00 C693.66,788.00 692.98,787.72 692.57,785.75 C692.31,784.51 691.05,777.65 689.77,770.50 C687.65,758.67 687.24,757.47 685.22,757.18 C683.01,756.86 683.00,756.92 683.00,772.43 L 683.00 788.00 L 678.00 788.00 L 673.00 788.00 L 673.00 752.00 ZM 690.17 746.35 C691.65,745.01 692.00,743.17 692.00,736.78 C692.00,726.98 691.07,725.00 686.46,725.00 L 683.00 725.00 L 683.00 735.83 C683.00,741.79 683.30,746.97 683.67,747.33 C684.88,748.55 688.31,748.03 690.17,746.35 ZM 750.15 781.75 C749.57,778.31 748.36,770.78 747.47,765.00 C746.58,759.22 744.53,746.39 742.92,736.48 C741.32,726.57 740.00,717.90 740.00,717.23 C740.00,716.42 741.71,716.00 744.95,716.00 C749.77,716.00 749.92,716.09 750.43,719.25 C751.17,723.93 754.87,753.16 755.83,762.00 C756.81,770.96 756.73,771.30 760.44,741.50 C763.85,714.14 763.24,716.00 768.73,716.00 L 773.23 716.00 L 772.53 722.75 C772.15,726.46 770.34,738.50 768.51,749.50 C766.69,760.50 764.64,773.66 763.96,778.75 L 762.72 788.00 L 756.96 788.00 L 751.21 788.00 L 750.15 781.75 ZM 778.00 752.00 L 778.00 716.00 L 783.00 716.00 L 788.00 716.00 L 788.00 752.00 L 788.00 788.00 L 783.00 788.00 L 778.00 788.00 L 778.00 752.00 ZM 795.00 752.00 L 795.00 716.00 L 804.75 716.00 C812.64,716.01 815.11,716.38 817.69,717.95 C823.30,721.37 823.47,722.25 823.83,749.90 C824.11,771.88 823.93,775.90 822.46,779.74 C819.89,786.47 816.63,787.99 804.75,788.00 L 795.00 788.00 L 795.00 752.00 ZM 811.78 777.44 C813.97,775.91 814.00,775.54 814.00,752.27 C814.00,726.24 813.72,725.00 807.85,725.00 L 805.00 725.00 L 805.00 751.33 C805.00,765.82 805.30,777.97 805.67,778.33 C806.80,779.46 809.45,779.08 811.78,777.44 ZM 830.87 785.75 C830.66,784.51 830.64,768.31 830.82,749.75 L 831.14 716.00 L 843.07 716.00 L 855.00 716.00 L 855.00 720.50 L 855.00 725.00 L 847.47 725.00 L 839.93 725.00 L 840.22 735.25 L 840.50 745.50 L 846.41 746.00 L 852.32 746.50 L 852.71 750.70 L 853.09 754.90 L 846.80 755.20 L 840.50 755.50 L 840.50 767.00 L 840.50 778.50 L 847.75 778.79 L 855.00 779.09 L 855.00 783.54 L 855.00 788.00 L 843.12 788.00 C831.57,788.00 831.22,787.94 830.87,785.75 ZM 860.71 787.38 C860.32,786.99 860.00,770.77 860.00,751.33 L 860.00 716.00 L 870.42 716.00 C880.12,716.00 881.06,716.18 883.86,718.53 C890.58,724.19 891.95,742.37 886.28,750.73 C883.51,754.81 883.33,752.82 888.45,775.50 C889.81,781.55 890.94,786.84 890.96,787.25 C890.98,787.66 888.77,788.00 886.04,788.00 C880.29,788.00 880.99,789.46 876.92,768.75 C875.04,759.16 874.30,757.00 872.89,757.00 C870.38,757.00 869.71,761.45 870.13,775.42 L 870.50 787.50 L 865.96 787.80 C863.47,787.96 861.10,787.77 860.71,787.38 ZM 877.43 746.43 C879.04,744.82 879.43,741.34 879.03,732.50 C878.74,726.34 877.72,725.00 873.31,725.00 L 869.87 725.00 L 870.56 735.75 C870.94,741.66 871.45,746.84 871.69,747.25 C872.43,748.55 875.79,748.07 877.43,746.43 Z" fill="rgb(234,233,227)"/>
</g>
</svg>